<svg height="512pt" viewBox="-32 0 512 512" width="512pt" xmlns="http://www.w3.org/2000/svg"><path d="m196.402344 0h-55.191406l-27.59375 80 27.59375 96.515625h55.191406l27.597656-96.515625zm0 0" fill="#1fd7c3"/><path d="m251.59375 0h55.191406l27.597656 80-27.597656 96.515625h-55.191406l-27.59375-96.515625zm0 0" fill="#ffb44d"/><path d="m133.160156 92.277344c-5.332031 0-10.566406.433594-15.671875 1.257812l23.722657 82.980469h55.191406l24.066406-84.167969c-14.742188.527344-29.023438 4.335938-41.890625 11.078125-13.890625-7.277343-29.425781-11.148437-45.417969-11.148437zm0 0" fill="#00bbc9"/><path d="m227.53125 92.347656 24.0625 84.167969h55.191406l23.726563-82.980469c-5.105469-.824218-10.339844-1.257812-15.675781-1.257812-15.988282 0-31.523438 3.871094-45.417969 11.148437-12.867188-6.742187-27.144531-10.550781-41.886719-11.078125zm0 0" fill="#e7a25d"/><path d="m196.402344 0h55.191406v176.515625h-55.191406zm0 0" fill="#ffe76c"/><path d="m100.28125 0c-7.875 0-14.261719 6.382812-14.261719 14.261719v162.253906h55.191407v-176.515625zm0 0" fill="#5bd6fd"/><path d="m347.71875 0h-40.933594v176.515625h55.191406v-162.253906c0-7.878907-6.382812-14.261719-14.257812-14.261719zm0 0" fill="#ff7f5a"/><path d="m361.976562 104.382812c-13.992187-7.710937-30.0625-12.105468-47.140624-12.105468-2.695313 0-5.382813.121094-8.050782.339844v83.898437h55.191406zm0 0" fill="#ff5d29"/><path d="m251.59375 96.238281c-8.875-2.601562-18.15625-3.960937-27.59375-3.960937-9.441406 0-18.71875 1.359375-27.597656 3.960937v80.277344h55.191406zm0 0" fill="#ffb44d"/><path d="m141.210938 92.617188c-2.664063-.21875-5.351563-.339844-8.050782-.339844-17.078125 0-33.144531 4.394531-47.140625 12.105468v72.132813h55.191407zm0 0" fill="#00acfb"/><path d="m200.257812 190.28125c0 37.054688-30.039062 67.09375-67.097656 67.09375-37.054687 0-67.09375-30.039062-67.09375-67.09375 0-37.058594 30.039063-67.097656 67.09375-67.097656 37.058594 0 67.097656 30.039062 67.097656 67.097656zm0 0" fill="#ffb44d"/><path d="m170.621094 190.28125c0 20.6875-16.773438 37.457031-37.460938 37.457031s-37.457031-16.769531-37.457031-37.457031c0-20.691406 16.769531-37.460938 37.457031-37.460938s37.460938 16.769532 37.460938 37.460938zm0 0" fill="#ffe76c"/><path d="m381.933594 190.28125c0 37.054688-30.039063 67.09375-67.097656 67.09375-37.054688 0-67.09375-30.039062-67.09375-67.09375 0-37.058594 30.039062-67.097656 67.09375-67.097656 37.058593 0 67.097656 30.039062 67.097656 67.097656zm0 0" fill="#ffb44d"/><path d="m352.296875 190.28125c0 20.6875-16.769531 37.457031-37.460937 37.457031-20.6875 0-37.457032-16.769531-37.457032-37.457031 0-20.691406 16.769532-37.460938 37.457032-37.460938 20.691406 0 37.460937 16.769532 37.460937 37.460938zm0 0" fill="#ffe76c"/><path d="m291.097656 190.28125c0 37.054688-30.042968 67.09375-67.097656 67.09375-37.058594 0-67.097656-30.039062-67.097656-67.09375 0-37.058594 30.039062-67.097656 67.097656-67.097656 37.054688 0 67.097656 30.039062 67.097656 67.097656zm0 0" fill="#ffe76c"/><path d="m261.457031 190.28125c0 20.6875-16.769531 37.457031-37.457031 37.457031s-37.460938-16.769531-37.460938-37.457031c0-20.691406 16.773438-37.460938 37.460938-37.460938s37.457031 16.769532 37.457031 37.460938zm0 0" fill="#ffb44d"/><g fill="#4a5660"><path d="m427.355469 291.097656h-55.742188v41.289063h55.742188c11.402343 0 20.644531-9.242188 20.644531-20.644531 0-11.402344-9.242188-20.644532-20.644531-20.644532zm0 0"/><path d="m377.371094 485.566406-12.207032-63.558594-28.648437 4.832032-23.535156 42.472656 24.613281 33.59375c4.1875 5.714844 10.851562 9.09375 17.9375 9.09375 13.96875 0 24.476562-12.71875 21.839844-26.433594zm0 0"/><path d="m20.644531 291.097656h55.742188v41.289063h-55.742188c-11.402343 0-20.644531-9.242188-20.644531-20.644531 0-11.402344 9.242188-20.644532 20.644531-20.644532zm0 0"/><path d="m70.625 485.566406 12.210938-63.558594 28.648437 4.832032 23.535156 42.472656-24.613281 33.59375c-4.1875 5.714844-10.851562 9.09375-17.941406 9.09375-13.964844 0-24.472656-12.71875-21.839844-26.433594zm0 0"/></g><path d="m371.4375 454.679688-6.273438-32.671876-28.648437 4.832032-23.535156 42.472656 15.242187 20.804688c16.015625-9.769532 30.554688-21.726563 43.214844-35.4375zm0 0" fill="#3d4851"/><path d="m82.835938 422.007812-6.277344 32.667969c12.664062 13.714844 27.203125 25.671875 43.214844 35.441407l15.246093-20.804688-23.535156-42.472656zm0 0" fill="#3d4851"/><path d="m23.285156 318.644531c0 4.617188.171875 9.199219.480469 13.742188h52.621094v-41.289063h-51.226563c-1.234375 9.050782-1.875 18.238282-1.875 27.546875zm0 0" fill="#3d4851"/><path d="m371.613281 332.386719h52.621094c.308594-4.542969.480469-9.125.480469-13.742188 0-9.308593-.640625-18.496093-1.875-27.546875h-51.226563zm0 0" fill="#3d4851"/><path d="m67.773438 239.816406c-11.976563 23.691406-18.734376 50.46875-18.734376 78.828125 0 96.625 78.332032 174.957031 174.960938 174.957031 96.625 0 174.957031-78.332031 174.957031-174.957031 0-28.359375-6.753906-55.136719-18.730469-78.828125l-156.226562-25.136718zm0 0" fill="#4a5660"/><path d="m141.285156 325.746094c-4.265625 0-7.726562-3.460938-7.726562-7.726563v-14.96875c0-4.269531 3.460937-7.726562 7.726562-7.726562 4.269532 0 7.726563 3.457031 7.726563 7.726562v14.96875c0 4.265625-3.457031 7.726563-7.726563 7.726563zm0 0" fill="#fff3e4"/><path d="m306.710938 325.746094c-4.265626 0-7.722657-3.460938-7.722657-7.726563v-14.96875c0-4.269531 3.457031-7.726562 7.722657-7.726562 4.269531 0 7.726562 3.457031 7.726562 7.726562v14.96875c0 4.265625-3.457031 7.726563-7.726562 7.726563zm0 0" fill="#fff3e4"/><path d="m224 333.734375c-10.1875 0-19.746094-4.253906-26.230469-11.671875-2.8125-3.214844-2.480469-8.09375.730469-10.902344s8.09375-2.480468 10.902344.730469c3.550781 4.0625 8.871094 6.390625 14.597656 6.390625s11.046875-2.328125 14.597656-6.390625c2.808594-3.210937 7.691406-3.539063 10.902344-.730469s3.542969 7.6875.730469 10.902344c-6.484375 7.417969-16.046875 11.671875-26.230469 11.671875zm0 0" fill="#fff3e4"/><path d="m60.988281 270.722656h326.023438c1.757812 0 3.492187-.089844 5.207031-.25-3.050781-10.667968-7.070312-20.925781-11.992188-30.65625l-156.226562-25.136718-156.226562 25.136718c-4.921876 9.730469-8.941407 19.988282-11.992188 30.65625 1.714844.160156 3.449219.25 5.207031.25zm0 0" fill="#3d4851"/><path d="m387.011719 189.542969h-326.023438c-13.886719 0-25.140625 11.253906-25.140625 25.136719 0 13.882812 11.257813 25.136718 25.140625 25.136718h326.023438c13.882812 0 25.136719-11.253906 25.136719-25.136718 0-13.882813-11.253907-25.136719-25.136719-25.136719zm0 0" fill="#4a5660"/></svg>